<?xml version="1.0" encoding="utf-8"?>
<!-- Svg Vector Icons : http://www.onlinewebfonts.com/icon -->
<!DOCTYPE svg PUBLIC "-//W3C//DTD SVG 1.1//EN" "http://www.w3.org/Graphics/SVG/1.1/DTD/svg11.dtd">
<svg version="1.1" xmlns="http://www.w3.org/2000/svg" xmlns:xlink="http://www.w3.org/1999/xlink" x="0px" y="0px" viewBox="0 0 256 256" enable-background="new 0 0 256 256" xml:space="preserve">
<metadata> Svg Vector Icons : http://www.onlinewebfonts.com/icon </metadata>
<g><g><path fill="#000000" d="M128,10C62.8,10,10,62.8,10,128c0,65.2,52.8,118,118,118c65.2,0,118-52.8,118-118C246,62.8,193.2,10,128,10z M99.4,60.7c7.6-7.6,17.8-11.8,28.6-11.8c10.8,0,21,4.2,28.6,11.8c7.7,7.7,11.9,17.8,11.9,28.6c0,10.8-4.2,20.9-11.9,28.6c-7.6,7.6-17.8,11.9-28.6,11.9c-10.8,0-21-4.2-28.6-11.9c-7.6-7.6-11.9-17.8-11.9-28.6C87.5,78.5,91.8,68.4,99.4,60.7z M128,223.1c-30.3,0-57.7-12.5-77.3-32.7c8.9-25.4,32.7-44.6,59.1-44.6h36.2c26.4,0,50.2,19.2,59.1,44.6C185.7,210.6,158.3,223.1,128,223.1z"/></g></g>
</svg>